<?xml version="1.0" encoding="utf-8" ?><svg xmlns="http://www.w3.org/2000/svg" xmlns:xlink="http://www.w3.org/1999/xlink" width="1024" height="1024" viewBox="0 0 1024 1024"><path fill="white" d="M0 0L1024 0L1024 1024L0 1024L0 0Z"/><path fill="#232223" d="M129.768 426.7C140.23 426.422 150.419 430.056 158.343 436.892C174.8 451.287 169.453 463.209 153.849 472.752C151.833 473.985 146.775 479.54 144.871 481.52C149.953 486.96 158.097 493.513 163.522 498.927C166.489 501.888 171.323 505.402 173.652 508.868C175.111 511.069 175.959 513.618 176.11 516.254C176.303 520.137 174.889 523.929 172.202 526.739C169.142 529.925 165.187 531.407 160.794 531.337C151.922 531.196 145.552 522.901 139.75 516.981C106.242 482.765 96.3547 489.194 134.548 451.262L127.322 451.68C123.665 458.629 120.989 466.177 111.922 467.698C108.114 468.359 104.2 467.459 101.064 465.201C98.4329 463.287 96.4737 460.45 95.5477 457.371C91.1122 442.622 106.151 432.118 118.391 428.489C122.389 427.304 125.72 426.977 129.768 426.7Z"/><path fill="#232223" d="M114.84 541.169C107.895 533.98 91.3013 521.534 90.4325 511.329C88.8797 502.253 104.731 492.388 111.784 497.502C125.2 507.621 136.605 520.887 148.952 532.396C159.217 541.965 152.717 551.733 144.408 558.883C142.093 561.032 139.855 563.262 137.698 565.569C130.636 573.576 120.988 587.193 110.229 587.618C105.604 587.792 101.122 585.997 97.8948 582.679C94.8069 579.469 93.1251 575.161 93.2213 570.708C93.3726 560.072 107.122 548.335 114.84 541.169Z"/><path fill="#232223" d="M734.435 494.162C743.264 493.207 752.711 496.677 758.588 503.375C769.492 515.802 768.857 537.875 755.819 548.603C746.505 556.267 731.872 557.569 722.245 549.755C719.679 547.691 718.148 545.809 716.083 543.282L716.057 552.161L716.102 578.947L708.522 579.057L708.554 494.873L716.066 494.845L716.096 504.382C722.108 497.584 725.461 495.51 734.435 494.162Z"/><path fill="white" d="M733.973 501.103C745.2 500.036 753.713 505.347 757.235 516.285C759.392 523.161 758.673 530.617 755.243 536.954C751.932 543.012 747.664 545.317 741.408 547.386C729.659 548.434 719.95 544.248 716.776 531.661C713.309 517.915 719.005 504.141 733.973 501.103Z"/><path fill="#232223" d="M530.504 494.305C547.033 492.54 561.882 504.461 563.733 520.98C565.583 537.499 553.74 552.41 537.23 554.346C520.599 556.296 505.555 544.347 503.691 527.706C501.827 511.065 513.854 496.083 530.504 494.305Z"/><path fill="white" d="M530.703 501.116C559.752 498.25 566.298 540.56 537.629 547.419C505.976 550.308 502.804 505.832 530.703 501.116Z"/><path fill="#232223" d="M84.9122 464.602C93.8614 464.125 102.695 468.613 103.397 478.256C104.295 490.603 85.7533 501.027 78.1603 509.909L77.7253 510.424C76.6 521.083 71.8766 527.094 61.4435 529.392C46.1265 530.528 38.3017 514.871 45.228 502.224C49.1771 496.425 54.7984 490.369 59.7589 485.448C67.4348 477.832 74.0671 467.301 84.9122 464.602Z"/><path fill="#232223" d="M328.342 494.208C328.805 494.174 329.268 494.148 329.732 494.129C347.414 493.426 355.22 502.613 354.971 519.541C354.8 531.095 354.84 542.872 354.747 554.445L345.47 554.436L345.402 546.763C335.092 558.773 316.281 558.214 306.896 545.176C304.004 538.969 303.94 530.292 309.324 525.416C318.043 517.519 333.942 519.556 345.118 519.746C345.065 516 345.242 511.529 342.945 508.444C335.135 497.954 320.507 503.918 311.95 509.079C310.268 506.795 308.689 504.159 307.165 501.746C314.714 496.543 319.332 494.98 328.342 494.208Z"/><path fill="white" d="M324.416 527.063C329.271 526.81 340.207 527.189 345.436 527.265C345.491 536.663 345.295 541.287 335.553 545.547C313.862 551.412 307.785 531.087 324.416 527.063Z"/><path fill="#232223" d="M206.989 498.158C220.32 498.474 227.52 512.247 219.549 522.619C211.662 532.882 201.192 541.973 192.679 551.809C188.073 557.132 185.392 560.112 178.246 561.339C164.694 560.339 155.877 548.675 164.977 536.754C172.874 527.84 181.786 520.043 189.423 510.812C194.644 504.5 198.617 499.539 206.989 498.158Z"/><path fill="#232223" d="M802.87 494.191C824.127 493.014 831.781 508.292 832.176 526.62C817.161 527.398 799.007 526.643 783.662 526.793C783.982 529.067 784.299 531.611 785.097 533.752C787.186 539.231 791.398 543.634 796.779 545.963C803.38 548.864 810.394 548.342 816.93 545.66C820.046 543.992 821.453 542.451 823.861 540.005L828.199 544.894C823.242 550.058 819.432 552.949 811.86 554.223C782.018 559.243 766.628 527.371 782.551 504.45C787.092 497.912 795.013 495 802.87 494.191Z"/><path fill="white" d="M801.53 500.589C807.3 500.203 812.289 501.388 816.997 504.956C820.754 507.804 826.058 515.362 824.587 520.255C824.426 520.79 818.289 520.488 817.781 520.582C814.404 520.598 810.557 520.59 807.043 520.601C799.143 520.649 791.242 520.629 783.343 520.54C785.904 509.659 789.944 503.242 801.53 500.589Z"/><path fill="#232223" d="M581.405 471.543L636.449 471.616L636.415 478.903C620.679 478.818 604.942 478.832 589.206 478.944C589.033 488.66 589.268 499.254 589.313 509.033C603.387 508.974 617.461 509 631.535 509.109L631.504 516.004C617.961 516.023 604.417 515.92 590.875 515.693L589.994 515.754C588.452 517.687 589.358 542.387 589.425 546.902L637.847 546.953C637.861 549.413 637.974 552.062 638.038 554.536C619.197 554.326 600.355 554.259 581.513 554.336L581.405 471.543Z"/><path fill="#232223" d="M404.431 471.474L413.758 471.491L414.057 523.611C418.97 518.448 424.54 514.178 430.03 509.653C436.077 504.67 442.077 499.467 448.249 494.653C451.318 495.137 456.083 495.009 459.332 495.012C449.811 503.139 440.357 511.344 430.972 519.627C435.169 525.683 439.888 531.659 444.39 537.517C448.622 543.229 452.95 548.87 457.371 554.437L446.034 554.404C442.36 549.529 428.297 530.204 424.931 526.94C420.13 529.935 419.871 529.236 413.985 529.201L413.976 554.171C411.126 554.363 407.412 554.306 404.482 554.333L404.431 471.474Z"/><path fill="#232223" d="M250.01 471.388C270.134 470.736 294.767 471.386 315.054 471.529L315.093 480.415C305.837 480.129 296.576 480.094 287.318 480.31L287.051 527.505L286.998 554.309L277.477 554.24C277.463 531.065 276.763 503.054 277.868 480.372C268.762 480.07 259.142 480.264 250.035 480.422L250.01 471.388Z"/><path fill="#232223" d="M448.093 471.649C470.23 470.986 495.153 471.472 517.467 471.508L517.493 479.037L486.52 479.038L486.518 523.75L486.532 554.182L478.456 554.412L478.415 479.068L447.999 478.995L448.093 471.649Z"/><path fill="#232223" d="M81.3261 524.058C91.2307 521.771 101.118 527.928 103.436 537.826C105.754 547.723 99.629 557.63 89.7391 559.979C79.8048 562.339 69.8432 556.18 67.5148 546.239C65.1864 536.297 71.377 526.355 81.3261 524.058Z"/><path fill="#232223" d="M949.831 494.189C958.191 493.5 965.649 495.554 972.739 499.867C971.916 501.952 970.864 504.169 969.938 506.229C961.854 501.147 949.088 497.437 940.717 504.677C935.625 509.081 937.289 515.143 943.426 518.022C954.116 523.038 974.992 520.975 975.109 537.453C974.964 550.805 962.861 555.048 951.375 554.765C941.985 554.175 936.621 552.121 928.548 547.283C931.794 539.488 931.731 540.462 938.763 545.06C948.214 551.24 976.642 547.224 965.031 532.38C962.04 528.556 940.231 527.426 935.535 522.04C923.575 508.322 933.782 495.719 949.831 494.189Z"/><path fill="#232223" d="M687.689 494.724L696.278 494.577L675.099 524.007C682.555 534.084 689.597 544.511 697.242 554.474L688.241 554.317C682.321 545.958 675.808 537.784 670.235 529.202C664.379 536.211 658.148 545.873 651.908 553.652C650.663 554.868 644.306 554.329 642.272 554.286C650.654 544.718 657.541 534.125 665.808 524.199C659.929 516.158 650.104 501.195 643.665 494.803L653.124 494.832C657.78 501.728 665.311 512.289 670.485 518.588C676.089 510.54 681.824 502.584 687.689 494.724Z"/><path fill="#232223" d="M173.72 465.737C183.298 464.488 192.101 471.172 193.47 480.734C194.839 490.296 188.264 499.182 178.72 500.669C172.439 501.648 166.118 499.174 162.171 494.191C158.224 489.208 157.262 482.488 159.652 476.598C162.043 470.708 167.417 466.559 173.72 465.737Z"/><path fill="#232223" d="M894.284 475.572L901.652 475.587L901.598 494.57C907.205 494.55 912.813 494.596 918.42 494.71C918.37 496.902 918.222 499.234 918.122 501.438C912.724 501.557 907.08 501.509 901.661 501.541C901.611 513.793 901.027 528.622 902.392 540.791C902.932 545.604 908.277 549.25 912.918 548.051C915.553 547.37 918.124 545.584 920.623 547.287L922.641 551.862C911.211 557.251 896.576 555.729 894.818 541.609C893.323 529.601 894.216 513.533 894.339 501.308L884.542 501.149L884.502 494.697L894.386 494.678L894.284 475.572Z"/><path fill="#232223" d="M373.198 471.393L383.044 471.453L383.168 554.368L373.478 554.435C373.502 528.07 374.224 497.483 373.198 471.393Z"/><path fill="#232223" d="M145.478 559.531C152.211 556.255 160.326 558.335 164.654 564.445C168.982 570.555 168.25 578.9 162.926 584.164C157.601 589.429 149.249 590.065 143.188 585.668C137.127 581.271 135.14 573.134 138.492 566.438L137.698 565.569C139.855 563.262 142.093 561.032 144.408 558.883L145.478 559.531Z"/><path fill="#B3B6B9" d="M144.408 558.883L145.478 559.531C142.453 561.003 139.998 563.43 138.492 566.438L137.698 565.569C139.855 563.262 142.093 561.032 144.408 558.883Z"/><path fill="#232223" d="M872.943 494.13C874.049 493.936 873.975 493.91 875.044 494.232C875.996 496.169 875.579 499.857 875.507 502.221L874.248 502.222C854.364 502.067 854.357 520.93 854.844 535.516C855.049 541.658 854.884 548.174 854.91 554.354L847.225 554.443L847.198 547.959C847.315 530.223 847.288 512.485 847.114 494.749L855.019 494.694L854.904 504.609C860.677 497.955 864.262 495.858 872.943 494.13Z"/></svg>